0
SECTION
2
HEADER
9
$INSUNITS
70
4
9
$ACADVER
1
AC1014
9
$HANDSEED
5
FFFF
0
ENDSEC
0
SECTION
2
TABLES
0
TABLE
2
VPORT
5
8
100
AcDbSymbolTable
0
ENDTAB
0
TABLE
2
LTYPE
5
5
100
AcDbSymbolTable
0
LTYPE
5
14
100
AcDbSymbolTableRecord
100
AcDbLinetypeTableRecord
2
BYBLOCK
70
0
0
LTYPE
5
15
100
AcDbSymbolTableRecord
100
AcDbLinetypeTableRecord
2
BYLAYER
70
0
0
ENDTAB
0
TABLE
2
LAYER
5
2
100
AcDbSymbolTable
70
2
0
LAYER
5
50
100
AcDbSymbolTableRecord
100
AcDbLayerTableRecord
2
0
70
0
6
CONTINUOUS
0
ENDTAB
0
TABLE
2
STYLE
5
3
100
AcDbSymbolTable
70
1
0
STYLE
5
11
100
AcDbSymbolTableRecord
100
AcDbTextStyleTableRecord
2
STANDARD
70
0
0
ENDTAB
0
TABLE
2
VIEW
5
6
100
AcDbSymbolTable
70
0
0
ENDTAB
0
TABLE
2
UCS
5
7
100
AcDbSymbolTable
70
0
0
ENDTAB
0
TABLE
2
APPID
5
9
100
AcDbSymbolTable
70
2
0
APPID
5
12
100
AcDbSymbolTableRecord
100
AcDbRegAppTableRecord
2
ACAD
70
0
0
ENDTAB
0
TABLE
2
DIMSTYLE
5
A
100
AcDbSymbolTable
70
1
0
ENDTAB
0
TABLE
2
BLOCK_RECORD
5
1
100
AcDbSymbolTable
70
1
0
BLOCK_RECORD
5
1F
100
AcDbSymbolTableRecord
100
AcDbBlockTableRecord
2
*MODEL_SPACE
0
BLOCK_RECORD
5
1B
100
AcDbSymbolTableRecord
100
AcDbBlockTableRecord
2
*PAPER_SPACE
0
ENDTAB
0
ENDSEC
0
SECTION
2
BLOCKS
0
BLOCK
5
20
100
AcDbEntity
100
AcDbBlockBegin
2
*MODEL_SPACE
0
ENDBLK
5
21
100
AcDbEntity
100
AcDbBlockEnd
0
BLOCK
5
1C
100
AcDbEntity
100
AcDbBlockBegin
2
*PAPER_SPACE
0
ENDBLK
5
1D
100
AcDbEntity
100
AcDbBlockEnd
0
ENDSEC
0
SECTION
2
ENTITIES
0
CIRCLE
5
100
100
AcDbEntity
8
0
100
AcDbCircle
10
-68.974999999999994
20
79.000000000007731
30
0
40
3.1500000000000021
210
0
220
-0
230
1
0
LINE
5
101
100
AcDbEntity
8
0
100
AcDbLine
10
-74.875
20
6.0000000000089333
30
0
11
-74.875
21
75.000000000008939
31
0
0
LINE
5
102
100
AcDbEntity
8
0
100
AcDbLine
10
-74.974999999999994
20
79.682138960561403
30
0
11
-74.974999999999994
21
0.99999999999986322
31
0
0
ARC
5
103
100
AcDbEntity
8
0
100
AcDbCircle
10
-69.985113792920515
20
80.000000000007745
30
0
40
4.9999999999999822
210
0
220
-0
230
1
100
AcDbArc
50
90
51
183.64487710676619
0
LINE
5
104
100
AcDbEntity
8
0
100
AcDbLine
10
-69.985113792920515
20
85.000000000007731
30
0
11
82.974999999999966
21
85.000000000007731
31
0
0
ARC
5
105
100
AcDbEntity
8
0
100
AcDbCircle
10
82.974999999999966
20
80.000000000005755
30
0
40
5.0000000000019718
210
0
220
-0
230
1
100
AcDbArc
50
0
51
90
0
LINE
5
106
100
AcDbEntity
8
0
100
AcDbLine
10
87.975000000001927
20
80.000000000005755
30
0
11
87.975000000001927
21
0.99999999999999645
31
0
0
ARC
5
107
100
AcDbEntity
8
0
100
AcDbCircle
10
82.975000000001955
20
0.99999999999999623
30
0
40
4.9999999999997025
210
-0
220
0
230
1
100
AcDbArc
50
-90
51
0
0
LINE
5
108
100
AcDbEntity
8
0
100
AcDbLine
10
82.975000000001955
20
-3.9999999999997065
30
0
11
43.368086055162919
21
-3.999999999999988
31
0
0
LINE
5
109
100
AcDbEntity
8
0
100
AcDbLine
10
43.368086055162891
20
-107.9145407568862
30
0
11
43.368086055162919
21
-3.9999999999999858
31
0
0
ARC
5
110
100
AcDbEntity
8
0
100
AcDbCircle
10
-69.975000000000009
20
0.99999999999986566
30
0
40
4.9999999999999911
210
0
220
0
230
1
100
AcDbArc
50
180
51
270
0
LINE
5
111
100
AcDbEntity
8
0
100
AcDbLine
10
-30.361874274564201
20
-3.9999999999999796
30
0
11
-69.975000000000009
21
-4.0000000000001261
31
0
0
LINE
5
112
100
AcDbEntity
8
0
100
AcDbLine
10
-30.361874274564201
20
-3.9999999999999796
30
0
11
-30.361874274564219
21
-107.89782711606043
31
0
0
LINE
5
113
100
AcDbEntity
8
0
100
AcDbLine
10
-27.862482220511346
20
-110.39782704214078
30
0
11
40.86747810921576
21
-110.41454068296656
31
0
0
ARC
5
114
100
AcDbEntity
8
0
100
AcDbCircle
10
-27.861874274564215
20
-107.89782711606043
30
0
40
2.5000000000000044
210
0
220
0
230
1
100
AcDbArc
50
180
51
269.98606690508564
0
ARC
5
115
100
AcDbEntity
8
0
100
AcDbCircle
10
40.868086055162891
20
-107.91454075688621
30
0
40
2.4999999999999947
210
0
220
0
230
1
100
AcDbArc
50
-90.013933094914364
51
0
0
LINE
5
116
100
AcDbEntity
8
0
100
AcDbLine
10
12.661874274564235
20
-91.000001356005669
30
0
11
12.661874274564235
21
-98.000001356005669
31
0
0
LINE
5
117
100
AcDbEntity
8
0
100
AcDbLine
10
12.661874274564235
20
-98.000001356005669
30
0
11
40.661874274564234
21
-98.000001356005669
31
0
0
LINE
5
118
100
AcDbEntity
8
0
100
AcDbLine
10
40.661874274564234
20
-91.000001356005669
30
0
11
12.661874274564235
21
-91.000001356005669
31
0
0
LINE
5
119
100
AcDbEntity
8
0
100
AcDbLine
10
40.661874274564234
20
-98.000001356005669
30
0
11
40.661874274564234
21
-91.000001356005669
31
0
0
LINE
5
120
100
AcDbEntity
8
0
100
AcDbLine
10
0.33812572543579056
20
-91.000001356005669
30
0
11
0.33812572543579106
21
-98.000001356005669
31
0
0
LINE
5
121
100
AcDbEntity
8
0
100
AcDbLine
10
-27.661874274564212
20
-91.000001356005669
30
0
11
0.33812572543578945
21
-91.000001356005669
31
0
0
LINE
5
122
100
AcDbEntity
8
0
100
AcDbLine
10
0.33812572543579106
20
-98.000001356005669
30
0
11
-27.661874274564212
21
-98.000001356005669
31
0
0
LINE
5
123
100
AcDbEntity
8
0
100
AcDbLine
10
-27.661874274564212
20
-98.000001356005669
30
0
11
-27.661874274564212
21
-91.000001356005669
31
0
0
CIRCLE
5
124
100
AcDbEntity
8
0
100
AcDbCircle
10
18.550000000000022
20
-85.207560007091956
30
0
40
2.0499999999999998
210
0
220
-0
230
1
0
CIRCLE
5
125
100
AcDbEntity
8
0
100
AcDbCircle
10
-5.5499999999999963
20
-85.207560007091956
30
0
40
2.0499999999999998
210
0
220
-0
230
1
0
CIRCLE
5
126
100
AcDbEntity
8
0
100
AcDbCircle
10
-5.5499999999999883
20
-55.307560007091929
30
0
40
2.0499999999999998
210
0
220
-0
230
1
0
CIRCLE
5
127
100
AcDbEntity
8
0
100
AcDbCircle
10
18.550000000000011
20
-55.307560007091929
30
0
40
2.0499999999999998
210
0
220
-0
230
1
0
CIRCLE
5
128
100
AcDbEntity
8
0
100
AcDbCircle
10
25.479094504339447
20
-39.891078978680497
30
0
40
1.6000000000000003
210
0
220
0
230
1
0
CIRCLE
5
129
100
AcDbEntity
8
0
100
AcDbCircle
10
-25.318247804329697
20
-24.651078978680495
30
0
40
1.6000000000000003
210
0
220
-0
230
1
0
CIRCLE
5
130
100
AcDbEntity
8
0
100
AcDbCircle
10
-25.31337395323288
20
3.288921021319501
30
0
40
1.6000000000000003
210
0
220
-0
230
1
0
CIRCLE
5
131
100
AcDbEntity
8
0
100
AcDbCircle
10
26.757512993738356
20
8.3689210213195118
30
0
40
1.6000000000000003
210
0
220
0
230
1
0
CIRCLE
5
132
100
AcDbEntity
8
0
100
AcDbCircle
10
23.123599553052088
20
19.692794218588677
30
0
40
1.6000000000000003
210
0
220
-0
230
1
0
CIRCLE
5
133
100
AcDbEntity
8
0
100
AcDbCircle
10
59.823599553052091
20
19.692794218588666
30
0
40
1.6000000000000003
210
0
220
-0
230
1
0
CIRCLE
5
134
100
AcDbEntity
8
0
100
AcDbCircle
10
81.974999999995219
20
1.9999999999903832
30
0
40
3.1500000000000021
210
0
220
-0
230
1
0
CIRCLE
5
135
100
AcDbEntity
8
0
100
AcDbCircle
10
59.823599553052105
20
56.592794218588665
30
0
40
1.6000000000000003
210
0
220
-0
230
1
0
CIRCLE
5
136
100
AcDbEntity
8
0
100
AcDbCircle
10
23.123599553052109
20
56.592794218588665
30
0
40
1.6000000000000003
210
0
220
-0
230
1
0
CIRCLE
5
137
100
AcDbEntity
8
0
100
AcDbCircle
10
10.800000000000002
20
45.5
30
0
40
1.7999999999999998
210
0
220
-0
230
1
0
CIRCLE
5
138
100
AcDbEntity
8
0
100
AcDbCircle
10
-8.4999999999999982
20
45.5
30
0
40
1.7999999999999998
210
0
220
-0
230
1
0
CIRCLE
5
139
100
AcDbEntity
8
0
100
AcDbCircle
10
-24.199999999999999
20
45.5
30
0
40
1.7999999999999998
210
0
220
-0
230
1
0
CIRCLE
5
140
100
AcDbEntity
8
0
100
AcDbCircle
10
-43.5
20
45.5
30
0
40
1.7999999999999998
210
0
220
-0
230
1
0
CIRCLE
5
141
100
AcDbEntity
8
0
100
AcDbCircle
10
-68.975000000004783
20
2.0000000000095337
30
0
40
3.1500000000000021
210
0
220
-0
230
1
0
CIRCLE
5
142
100
AcDbEntity
8
0
100
AcDbCircle
10
81.975000000000023
20
79.000000000007731
30
0
40
3.1500000000000021
210
0
220
-0
230
1
0
LINE
5
143
100
AcDbEntity
8
0
100
AcDbLine
10
-52.699999999999996
20
43.115000000008941
30
0
11
-52.699999999999996
21
33.590000000008935
31
0
0
LINE
5
144
100
AcDbEntity
8
0
100
AcDbLine
10
-55.874999999999993
20
33.590000000008935
30
0
11
-55.874999999999993
21
43.115000000008941
31
0
0
LINE
5
145
100
AcDbEntity
8
0
100
AcDbLine
10
-55.874999999999993
20
43.115000000008941
30
0
11
-52.699999999999996
21
43.115000000008941
31
0
0
LINE
5
146
100
AcDbEntity
8
0
100
AcDbLine
10
-52.699999999999996
20
33.590000000008935
30
0
11
-55.874999999999993
21
33.590000000008935
31
0
0
LINE
5
147
100
AcDbEntity
8
0
100
AcDbLine
10
68.875000000001933
20
43.114999999998815
30
0
11
68.875000000001933
21
33.589999999998817
31
0
0
LINE
5
148
100
AcDbEntity
8
0
100
AcDbLine
10
65.700000000001921
20
43.114999999998815
30
0
11
68.875000000001933
21
43.114999999998815
31
0
0
LINE
5
149
100
AcDbEntity
8
0
100
AcDbLine
10
65.700000000001921
20
33.589999999998817
30
0
11
65.700000000001921
21
43.114999999998815
31
0
0
LINE
5
150
100
AcDbEntity
8
0
100
AcDbLine
10
68.875000000001933
20
33.589999999998817
30
0
11
65.700000000001921
21
33.589999999998817
31
0
0
ENDSEC
0
SECTION
2
OBJECTS
0
DICTIONARY
5
C
100
AcDbDictionary
3
ACAD_GROUP
350
D
3
ACAD_MLINESTYLE
350
17
0
DICTIONARY
5
D
100
AcDbDictionary
0
DICTIONARY
5
1A
330
C
100
AcDbDictionary
0
DICTIONARY
5
17
100
AcDbDictionary
0
ENDSEC
0
EOF
